<?xml version="1.0" encoding="UTF-8"?><svg id="Layer_1" xmlns="http://www.w3.org/2000/svg" xmlns:xlink="http://www.w3.org/1999/xlink" viewBox="0 0 786.34 431.66"><defs><style>.cls-1{fill:url(#linear-gradient-2);}.cls-2{fill:#fff;}.cls-3{fill:url(#linear-gradient-6);}.cls-4{fill:#ffb81c;}.cls-5{fill:url(#linear-gradient-11);}.cls-6{fill:#e31837;}.cls-7{fill:url(#linear-gradient-10);}.cls-8{fill:#fffffe;}.cls-9{fill:#9c1d20;}.cls-10{fill:url(#linear-gradient-5);}.cls-11{fill:none;}.cls-12{fill:url(#linear-gradient-7);}.cls-13{fill:#6a5f5e;}.cls-14{fill:#bf2026;}.cls-15{fill:#7e7e7e;}.cls-16{fill:#5b4646;}.cls-17{fill:url(#linear-gradient-9);}.cls-18{fill:url(#linear-gradient-3);}.cls-19{fill:url(#linear-gradient);}.cls-20{opacity:.15;}.cls-21{fill:#644f50;}.cls-22{fill:url(#linear-gradient-4);}.cls-23{fill:url(#linear-gradient-8);}</style><linearGradient id="linear-gradient" x1="240.4" y1="226.36" x2="164.6" y2="302.18" gradientTransform="translate(0 434) scale(1 -1)" gradientUnits="userSpaceOnUse"><stop offset="0" stop-color="#fff" stop-opacity=".4"/><stop offset=".11" stop-color="#fff" stop-opacity=".28"/><stop offset=".23" stop-color="#fff" stop-opacity=".18"/><stop offset=".36" stop-color="#fff" stop-opacity=".1"/><stop offset=".51" stop-color="#fff" stop-opacity=".04"/><stop offset=".69" stop-color="#fff" stop-opacity="0"/><stop offset="1" stop-color="#fff" stop-opacity="0"/></linearGradient><linearGradient id="linear-gradient-2" x1="78.57" y1="222.96" x2="136.43" y2="305.58" gradientTransform="translate(0 434) scale(1 -1)" gradientUnits="userSpaceOnUse"><stop offset="0" stop-color="#fff" stop-opacity=".4"/><stop offset=".11" stop-color="#fff" stop-opacity=".28"/><stop offset=".23" stop-color="#fff" stop-opacity=".18"/><stop offset=".36" stop-color="#fff" stop-opacity=".1"/><stop offset=".51" stop-color="#fff" stop-opacity=".04"/><stop offset=".69" stop-color="#fff" stop-opacity="0"/><stop offset="1" stop-color="#fff" stop-opacity="0"/></linearGradient><linearGradient id="linear-gradient-3" x1="155" y1="292.58" x2="155" y2="369.34" gradientTransform="translate(0 434) scale(1 -1)" gradientUnits="userSpaceOnUse"><stop offset="0" stop-color="#fff" stop-opacity=".4"/><stop offset=".11" stop-color="#fff" stop-opacity=".28"/><stop offset=".23" stop-color="#fff" stop-opacity=".18"/><stop offset=".36" stop-color="#fff" stop-opacity=".1"/><stop offset=".51" stop-color="#fff" stop-opacity=".04"/><stop offset=".69" stop-color="#fff" stop-opacity="0"/><stop offset="1" stop-color="#fff" stop-opacity="0"/></linearGradient><linearGradient id="linear-gradient-4" x1="212.5" y1="142.54" x2="212.5" y2="434" gradientTransform="translate(0 434) scale(1 -1)" gradientUnits="userSpaceOnUse"><stop offset="0" stop-color="#ffb81c"/><stop offset=".58" stop-color="#ffe2a1" stop-opacity=".42"/><stop offset="1" stop-color="#fff" stop-opacity="0"/></linearGradient><linearGradient id="linear-gradient-5" x1="64.92" y1="166.68" x2="130.08" y2="409.86" gradientTransform="translate(0 434) scale(1 -1)" gradientUnits="userSpaceOnUse"><stop offset="0" stop-color="#ffb81c"/><stop offset=".09" stop-color="#ffba23" stop-opacity=".97"/><stop offset=".22" stop-color="#ffc037" stop-opacity=".88"/><stop offset=".38" stop-color="#ffca57" stop-opacity=".74"/><stop offset=".57" stop-color="#ffd883" stop-opacity=".55"/><stop offset=".78" stop-color="#ffeabc" stop-opacity=".3"/><stop offset="1" stop-color="#fff" stop-opacity="0"/></linearGradient><linearGradient id="linear-gradient-6" x1="14.26" y1="206.33" x2="1.68" y2="184.53" gradientTransform="translate(32.55 535.16) rotate(39.11) scale(1.38 -.73) skewX(-25.48)" gradientUnits="userSpaceOnUse"><stop offset="0" stop-color="#ffb81c"/><stop offset=".2" stop-color="#ffb91f"/><stop offset=".34" stop-color="#ffbc28"/><stop offset=".46" stop-color="#ffc137"/><stop offset=".57" stop-color="#ffc74d"/><stop offset=".68" stop-color="#ffd069"/><stop offset=".77" stop-color="#ffdb8c"/><stop offset=".87" stop-color="#ffe8b5"/><stop offset=".95" stop-color="#fff6e3"/><stop offset="1" stop-color="#fff"/></linearGradient><linearGradient id="linear-gradient-7" x1="30.71" y1="222.68" x2="12.84" y2="191.73" gradientTransform="translate(32.55 535.16) rotate(39.11) scale(1.38 -.73) skewX(-25.48)" gradientUnits="userSpaceOnUse"><stop offset="0" stop-color="#ffb81c"/><stop offset=".2" stop-color="#ffb91f"/><stop offset=".34" stop-color="#ffbc28"/><stop offset=".46" stop-color="#ffc137"/><stop offset=".57" stop-color="#ffc74d"/><stop offset=".68" stop-color="#ffd069"/><stop offset=".77" stop-color="#ffdb8c"/><stop offset=".87" stop-color="#ffe8b5"/><stop offset=".95" stop-color="#fff6e3"/><stop offset="1" stop-color="#fff"/></linearGradient><linearGradient id="linear-gradient-8" x1="47.15" y1="239.02" x2="23.99" y2="198.92" gradientTransform="translate(32.55 535.16) rotate(39.11) scale(1.38 -.73) skewX(-25.48)" gradientUnits="userSpaceOnUse"><stop offset="0" stop-color="#ffb81c"/><stop offset=".2" stop-color="#ffb91f"/><stop offset=".34" stop-color="#ffbc28"/><stop offset=".46" stop-color="#ffc137"/><stop offset=".57" stop-color="#ffc74d"/><stop offset=".68" stop-color="#ffd069"/><stop offset=".77" stop-color="#ffdb8c"/><stop offset=".87" stop-color="#ffe8b5"/><stop offset=".95" stop-color="#fff6e3"/><stop offset="1" stop-color="#fff"/></linearGradient><linearGradient id="linear-gradient-9" x1="63.6" y1="255.37" x2="35.16" y2="206.1" gradientTransform="translate(32.55 535.16) rotate(39.11) scale(1.38 -.73) skewX(-25.48)" gradientUnits="userSpaceOnUse"><stop offset="0" stop-color="#ffb81c"/><stop offset=".2" stop-color="#ffb91f"/><stop offset=".34" stop-color="#ffbc28"/><stop offset=".46" stop-color="#ffc137"/><stop offset=".57" stop-color="#ffc74d"/><stop offset=".68" stop-color="#ffd069"/><stop offset=".77" stop-color="#ffdb8c"/><stop offset=".87" stop-color="#ffe8b5"/><stop offset=".95" stop-color="#fff6e3"/><stop offset="1" stop-color="#fff"/></linearGradient><linearGradient id="linear-gradient-10" x1="80.04" y1="271.7" x2="46.32" y2="213.29" gradientTransform="translate(32.55 535.16) rotate(39.11) scale(1.38 -.73) skewX(-25.48)" gradientUnits="userSpaceOnUse"><stop offset="0" stop-color="#ffb81c"/><stop offset=".2" stop-color="#ffb91f"/><stop offset=".34" stop-color="#ffbc28"/><stop offset=".46" stop-color="#ffc137"/><stop offset=".57" stop-color="#ffc74d"/><stop offset=".68" stop-color="#ffd069"/><stop offset=".77" stop-color="#ffdb8c"/><stop offset=".87" stop-color="#ffe8b5"/><stop offset=".95" stop-color="#fff6e3"/><stop offset="1" stop-color="#fff"/></linearGradient><linearGradient id="linear-gradient-11" x1="96.51" y1="288.04" x2="57.5" y2="220.47" gradientTransform="translate(32.55 535.16) rotate(39.11) scale(1.38 -.73) skewX(-25.48)" gradientUnits="userSpaceOnUse"><stop offset="0" stop-color="#ffb81c"/><stop offset=".2" stop-color="#ffb91f"/><stop offset=".34" stop-color="#ffbc28"/><stop offset=".46" stop-color="#ffc137"/><stop offset=".57" stop-color="#ffc74d"/><stop offset=".68" stop-color="#ffd069"/><stop offset=".77" stop-color="#ffdb8c"/><stop offset=".87" stop-color="#ffe8b5"/><stop offset=".95" stop-color="#fff6e3"/><stop offset="1" stop-color="#fff"/></linearGradient></defs><g id="Layer_2"><g id="Layer_1-2"><polygon class="cls-9" points="155 431.66 310 369.04 310 244.04 155 306.66 155 431.66"/><polygon class="cls-14" points="155 431.66 0 369.04 0 244.04 155 306.66 155 431.66"/><polygon class="cls-6" points="310 244.04 310 244.04 310 244.04 155 181.42 0 244.04 0 244.04 0 244.04 0 244.04 0 244.04 155 306.66 310 244.04 310 244.04 310 244.04"/><g class="cls-20"><polygon class="cls-2" points="310 244.04 310 244.04 310 244.04 155 181.42 0 244.04 0 244.04 0 244.04 0 244.04 0 244.04 155 306.66 310 244.04 310 244.04 310 244.04"/></g><path class="cls-4" d="M155,197.59l-115,46.41,115,46.45,115-46.45-115-46.41Zm-88.26,46.41l88.26-35.62,88.26,35.62-88.26,35.7-88.26-35.7Z"/><g id="Cube"><polygon class="cls-16" points="155 226.67 221.5 197.12 221.5 123.97 155 153.52 155 226.67"/><polygon class="cls-21" points="155 226.67 88.5 197.12 88.5 123.97 155 153.52 155 226.67"/><polygon class="cls-13" points="221.5 123.97 221.5 123.97 221.5 123.97 155 94.41 88.5 123.97 88.5 123.97 88.5 123.97 88.5 123.97 88.5 123.97 155 153.52 221.5 123.97 221.5 123.97 221.5 123.97"/></g><g id="Highlights"><polygon class="cls-19" points="155 236.42 250 198.04 250 103.04 155 141.42 155 236.42"/><polygon class="cls-1" points="155 236.42 60 198.04 60 103.04 155 141.42 155 236.42"/><polygon class="cls-18" points="250 103.04 250 103.04 250 103.04 155 64.66 60 103.04 60 103.04 60 103.04 60 103.04 60 103.04 155 141.42 250 103.04 250 103.04 250 103.04"/></g><polygon class="cls-22" points="155 291.46 270 245 270 0 155 46.46 155 291.46"/><polygon class="cls-10" points="155 291.46 40 245 40 0 155 46.46 155 291.46"/><path class="cls-15" d="M340.07,131.32h11.71c6,0,9.22,2.85,9.22,8.21s-3.25,8.19-9.22,8.19h-6.4v6h-5.31v-22.4Zm11.36,12c2.61,0,4.24-1.26,4.24-3.74s-1.63-3.76-4.24-3.76h-6.05v7.5h6.05Z"/><path class="cls-15" d="M362.6,142.52c0-7,5-12,12.3-12s12.32,4.91,12.32,12-5,11.95-12.32,11.95-12.3-4.91-12.3-11.95Zm19.34,0c0-4.4-3-7.34-7-7.34s-7,2.94-7,7.34c-.22,3.82,2.7,7.1,6.52,7.32,.16,0,.32,.01,.48,.01,3.96,0,7-2.93,7-7.33Z"/><path class="cls-15" d="M387.16,131.32h5.36l3.58,16.68h.48l4.26-16.72h4.46l4.29,16.72h.48l3.55-16.72h5.38l-5,22.4h-7.2l-3.47-14.13h-.5l-3.47,14.13h-7.18l-5.02-22.36Z"/><path class="cls-15" d="M420.76,131.32h18.86v4.34h-13.55v4.91h13.07v3.84h-13.07v4.94h13.55v4.37h-18.86v-22.4Z"/><path class="cls-15" d="M458.12,153.72l-3.68-6.67h-7.23v6.67h-5.3v-22.4h11.76c6,0,9.17,2.8,9.17,8,.11,2.78-1.38,5.38-3.84,6.68l4.37,7.73h-5.25Zm-10.91-10.73h6.17c2.69,0,4.18-1.22,4.18-3.6s-1.49-3.6-4.18-3.6h-6.17v7.2Z"/><path class="cls-15" d="M465.19,131.32h18.81v4.34h-13.51v4.91h13.07v3.84h-13.07v4.94h13.51v4.37h-18.81v-22.4Z"/><path class="cls-15" d="M508.63,142.52c0,6.37-3.31,11.2-12,11.2h-10.3v-22.4h10.3c8.69,0,12,4.82,12,11.2Zm-5.33,0c0-4.32-2.35-6.72-6.7-6.72h-4.91l-.05,13.44h5c4.36,0,6.66-2.4,6.66-6.72h0Z"/><path class="cls-15" d="M538.55,147.4c0,3.71-2.59,6.32-9.2,6.32h-12v-22.4h12c6.4,0,8.43,2.64,8.43,5.73,.1,2.04-1.16,3.9-3.09,4.56v.39c2.34,.74,3.92,2.94,3.86,5.4Zm-15.87-11.92v5h6.32c2.43,0,3.73-.83,3.73-2.46s-1.3-2.5-3.73-2.5l-6.32-.04Zm10.48,11.12c0-1.81-1.41-2.8-3.89-2.8h-6.59v5.76h6.59c2.48,0,3.89-1.17,3.89-2.96h0Z"/><path class="cls-15" d="M552.31,146.55v7.17h-5.31v-7.2l-9.23-15.2h5.66l6,10h.56l6-10h5.65l-9.33,15.23Z"/><path class="cls-2" d="M329.59,221.29h8.5c-.9,4.5,2.9,6.4,9.2,6.4s11.85-1.9,11.85-6.35c0-2.65-2.1-3.75-6.6-4.7l-3.35-.75c-4.95-1.1-13.3-2.9-13.3-10.6,0-9.3,9.05-14.55,21.05-14.55s18.85,5.15,15.35,14.1h-8.29c.65-3.85-2.15-6.3-8.5-6.3s-10.2,2.35-10.2,6.05c0,2.5,1.9,3.6,5.65,4.5l2.8,.65c6,1.45,15.1,2.6,15.1,10.8,0,10.8-10.85,15-23.05,15s-19.56-4.1-16.21-14.25Z"/><path class="cls-2" d="M417.29,200.49h-15.5l-11,33.65h-10l11-33.65h-15.79l2.65-8.35h41.35l-2.71,8.35Z"/><path class="cls-2" d="M447.49,219.74l3.55,14.4h-9.6l-3-12.5h-13.9l-4.05,12.5h-10l13.55-42h20.6c9.8,0,14.45,3.9,14.45,11.35s-5.09,13.45-11.6,16.25Zm1.6-14.3c0-3.7-2.25-4.95-6.55-4.95h-11.2l-4.4,13.65h11.7c5.36-.05,10.45-3.45,10.45-8.7Z"/><path class="cls-2" d="M487.49,227.09h-20.49l-4.85,7h-10.71l29.5-42h14.06l2.7,42h-9.85l-.36-7Zm-.35-7.55l-.9-17.95h-1.55l-12.4,17.95h14.85Z"/><path class="cls-2" d="M542.29,200.49h-15.5l-10.95,33.65h-10l10.95-33.65h-15.79l2.65-8.35h41.35l-2.71,8.35Z"/><path class="cls-2" d="M556.39,200.24l-3,9.2h25.1l-2.25,6.9h-25.1l-3.14,9.66h25.5l-2.65,8.1h-35.46l13.6-42h35.5l-2.65,8.1-25.45,.04Z"/><path class="cls-2" d="M590.19,217.19c0,6.25,4.2,9.7,10.35,9.7,4.6,0,11.6-1.9,14.7-8.95h-13.15l1.95-6.05h23l-7.2,22.25h-6l1.6-5.45c-3.85,4.2-9.85,6.85-17,6.85-11.15,0-18.1-6.25-18.1-16.8,0-14.8,12.7-28,29.85-28,10.55,0,18,6.1,17.7,14.95h-10c-1.15-4.25-5-6.3-9.65-6.3-9.84,.08-17.83,7.97-18.05,17.8Z"/><path class="cls-2" d="M647.49,220.79l-4.3,13.35h-10l4.45-13.95-7.85-28.05h10l5,18.6h1l16.85-18.6h11.15l-26.3,28.65Z"/><path class="cls-2" d="M404.46,297.89l3.75,3.7-6.15,5.9-4.2-4.3c-5.22,2.93-11.12,4.41-17.1,4.3-10.6,0-17.15-4.1-17.15-11.5s6.1-12.35,13.95-14.45c-1.02-1.8-1.57-3.83-1.6-5.9,0-7.85,8.45-12.6,19-12.6s16.65,5.1,13.35,14.9h-8.45c1.65-5.2-1.2-7.35-6.25-7.35s-8.85,2.1-8.85,5.6c0,2.3,1.55,3.9,4.8,7.05l9.3,9.15c2.18-2.33,3.87-5.09,4.95-8.1h8.5c-1.57,5.06-4.25,9.71-7.85,13.6Zm-12.3-.5l-10.7-10.95c-4.85,1.3-7.75,3.9-7.75,7.45,0,4.5,4.5,5.75,8.7,5.75,3.38,.02,6.72-.75,9.75-2.25Z"/><path class="cls-2" d="M457.66,299.09h-20.45l-4.85,7.05h-10.75l29.5-42h14.05l2.7,42h-9.86l-.34-7.05Zm-.35-7.55l-.9-18h-1.55l-12.4,18h14.85Z"/><path class="cls-2" d="M483.56,264.14h11.15l10.55,28.5h1.1l9.35-28.5h9.75l-13.65,42h-10.9l-10.91-28.3h-1.1l-9.25,28.3h-9.8l13.71-42Z"/><path class="cls-2" d="M550.61,299.09h-20.45l-4.85,7.05h-10.75l29.5-42h14.05l2.7,42h-9.81l-.39-7.05Zm-.35-7.55l-.9-18h-1.55l-12.4,18h14.85Z"/><path class="cls-2" d="M576.51,264.14h10l-11,33.65h24.8l-2.7,8.35h-34.8l13.7-42Z"/><path class="cls-2" d="M616.61,292.79l-4.3,13.35h-9.95l4.45-13.95-7.81-28.05h10l5,18.6h1l16.85-18.6h11.15l-26.39,28.65Z"/><path class="cls-2" d="M683.66,272.49h-15.5l-10.95,33.65h-10l10.95-33.65h-15.8l2.65-8.35h41.35l-2.7,8.35Z"/><path class="cls-2" d="M690.36,264.14h10l-13.6,42h-10l13.6-42Z"/><path class="cls-2" d="M696.6,290.54c0-14.6,12.7-27.8,29.86-27.8,11,0,18.7,6.65,17.45,16.4h-9.55c-.6-5.35-4.7-7.75-9.81-7.75-9.82,.11-17.78,7.98-18,17.8,0,6.25,4.2,9.7,10.35,9.7,4.9,0,9.9-1.9,13.76-7.6h9.8c-5.7,12.9-16.81,16.25-25.46,16.25-11.45,0-18.4-6.54-18.4-17Z"/><path class="cls-2" d="M742.8,293.29h8.5c-.9,4.5,2.9,6.4,9.2,6.4s11.85-1.9,11.85-6.35c0-2.65-2.1-3.75-6.6-4.7l-3.35-.75c-4.95-1.1-13.3-2.9-13.3-10.6,0-9.3,9-14.55,21-14.55s18.86,5.15,15.35,14.1h-8.25c.66-3.85-2.15-6.3-8.5-6.3s-10.2,2.35-10.2,6c0,2.5,1.9,3.6,5.65,4.5l2.8,.65c6,1.45,15.11,2.6,15.11,10.8,0,10.8-10.86,15-23.06,15s-19.55-4.05-16.2-14.2Z"/><path class="cls-11" d="M167.36,290.38l128.37-40.47,9.64,134.85-128.37,40.47-9.64-134.85Z"/><path class="cls-8" d="M185,378.72c-.98,.01-1.91-.41-2.55-1.15-1-1.22-.77-2.42-.63-4.59,.22-1.84-.03-3.71-.71-5.44-.6-1.53-1.07-3.1-1.42-4.71-.25-1.11-.45-2.23-.58-3.36-.1-1.2-.1-2.36-.09-4.09,.05-1.69,.3-3.37,.72-5,.19-.88,.74-3,1.1-4,.59-1.71,1.29-2.69,.75-5.22-.2-1-.61-1.4-.86-2.71-.24-1.08-.24-2.2,0-3.28,.18-.93,.52-1.82,1-2.64,.5-.97,1.28-1.75,2.25-2.25,.51-.32,1.09-.52,1.69-.59,1.93-.43,1.77,1.43,4.5-1.33,1.31-1.23,3.61-2.61,6.1-1.61,1.05,.3,2.05,2.16,.71-1-.65-1.92-1.24-2.79-2.17-5.84-1.11-2.98-.47-6.33,1.68-8.67,1.62-2.15,5.18-2.54,9.31-3,3.63-.42,4.39-1.87,6.84-2.53,1.2-.39,2.43-.66,3.68-.81,1.14-.09,2.29,.02,3.39,.32,2.54,.63,2.3-.71,5.74-1.31,.86-.26,1.75-.43,2.65-.51,1.12-.01,2.24,.16,3.3,.51,3.3,.94,3.34,1.38,8.58-.53,1.25-.27,2.55-.19,3.75,.24,1.91,.72,3.98,.93,6,.59,2.87-.71,5.29-1.87,9-.34,2.74,1.59,5.93,.47,8.9,1.2,1.72,.51,3.26,1.47,4.48,2.78,.26,.32,1.24,.66,3.62,.33,2.13-.3,4.53,1.64,5.84,3.1,1.62,1,.66,.28,2.85,1.14,1.05,.42,1.58,.63,2.62,1.09,1.35,.61,.48,.13,2.1,.92,.3,.14,.7,.46,1.79,1.1,1.06,.46,1.95,1.24,2.56,2.22,.87,1.34,.34,2.64-.26,4.16-.59,1.64-1.39,3.19-2.37,4.63-.69,1.16-1.54,2.22-2.5,3.16-2.88,2.84-5.17,2.91-6.29,5.57-1.64,3.93-3.08,5.49-4.46,6.64-2.76,2.31-4.69,2.87-6.4,4.94-1.59,1.86-3.33,3.58-5.21,5.15-2.94,2.38-3.38,1.66-5.37,3.69-.68,.75-1.32,1.55-1.91,2.38-.94,1.15-2.07,2.11-3.35,2.86-1.09,.46-2.16,.99-3.19,1.58-2.46,1.49-2.66,2.5-5.38,3.93-3.18,1.66-4.53,1.76-7.49,4.27-.78,.65-1.62,1.33-2.75,2.37-1.87,1.42-3.93,2.57-6.13,3.39-1,.37-2,0-4.31,1.95-1.62,1.53-3.48,2.78-5.5,3.71-.92,.42-1.87,.76-2.85,1-1.8,.56-3.72,.5-5.64,1.17-1.07,.3-2.12,.68-3.14,1.13l-1.15,.56-1.69,.94-.61,.37c-1.04,.63-2.22,1.01-3.43,1.11-1.41,.18-2.84-.18-4-1-1.11-1-1.34-2.15-1.34-3.87,.4-3.13,.96-6.25,1.69-9.32,0,0,.75-2.45-1.35-.54-2.16,1.56-4,.6-5.32,1.51-1.08,1.12-2.33,2.07-3.7,2.8-.95,.48-2.01,.71-3.08,.67"/><path d="M210.55,382.38c1.35-.62,2.79-1.03,4.27-1.19,1.68-.18,3.33-.57,4.91-1.17,.84-.36,1.64-.8,2.41-1.3,2.25-1.51,3.24-2.9,6-4.17,2.28-1.05,2.31-.65,4.32-1.39,1.55-.64,2.94-1.62,4.06-2.87,1-1,1.32-1.1,2-1.73,2.51-2.29,5.59-3.08,8.46-4.76,2-1.18,2.76-2.45,5-3.83,.93-.48,1.89-.91,2.87-1.29,1.06-.62,1.98-1.44,2.71-2.42,.55-.93,1.22-1.79,2-2.54,1.58-1.5,3.44-2.06,5-3.39,1.58-1.14,2.98-2.51,4.16-4.06,1.65-2.45,4.42-3.87,6.66-5.48,1.99-1.39,3.5-3.35,4.35-5.62,1.28-3.14,2.55-3.93,5.11-5.58,1.48-.86,2.73-2.05,3.67-3.48,.79-1.09,1.46-2.26,2-3.49,.55-1.15,1.66-3.11,.27-3.91-.79-.67-1.64-1.26-2.54-1.76-.67-.39-1.37-.72-2.09-1-.51-.31-1.07-.53-1.65-.65-1-.33-1.31-.76-2.33-1-1.84-.49-2-.74-3.58-2.07-1.39-2-3.33-1.71-5.28-1.56-1.37,.09-2.71-.43-3.66-1.43-.97-1.03-2.25-1.7-3.64-1.91-2.74-.67-5.75,.53-8.28-.94-3.76-1.54-4.66-.75-8.42,.31-1.94,.45-3.97,.29-5.82-.44-.76-.38-1.61-.58-2.46-.58-2.71,0-4.41,2-8.25,1.29-1.12-.21-2.14-.66-3.25-1-.74-.2-1.5-.25-2.26-.14-2,.18-3.67,1-6,2-1.1,.45-1.8,0-2.87-.22-1.07-.26-2.17-.32-3.26-.17-1.86,.35-3.65,1.02-5.28,2-3.64,1.95-7.17,1.05-10.71,2.52-.94,.57-1.68,1.43-2.08,2.45-.38,1.03-.46,2.14-.24,3.21,.11,.9,.37,1.77,.79,2.58,.81,2.07,1.23,3.2,1.85,4.56,.73,1.59,.86,3.76-.51,4.9-.68,.6-1.61,.83-2.49,.61-1.06-.49-1.69-1.45-2.83-1.33-1.54,.17-3.23,2.37-4.8,3.31s-1.85,.1-3-.09c-.77-.13-1.45,.62-1.85,1-.63,.74-.97,1.69-.94,2.67-.12,.78-.07,1.59,.15,2.35,.36,.84,.66,1.72,.88,2.61,.3,1.77,.03,3.59-.75,5.21-.54,1.26-.95,2.58-1.22,3.92-.39,1.52-.62,3.08-.7,4.65-.1,1.22,0,2.52,0,3.65,0,.21,.31,2.65,.48,3.36,.36,1.44,.8,2.86,1.31,4.26,.62,1.65,.99,3.39,1.08,5.15,.08,1.79-.87,3.79,.23,4.72,1.15,.72,2.63,.61,3.66-.27,1.01-.97,2.11-1.84,3.29-2.59,1.93-.9,3.25-.41,4.09-.79s2-1.53,2.62-1.78c.6-.3,1.28-.44,1.95-.41,.63,.28,1,.69,1.05,2.34,0,0-.24,1.84-.24,1.85-.47,2.33-1,4.52-1.2,6.08s-1.58,5.44,1.75,5.78c1.4,.14,2.84-.43,4.59-1.47,.88-.53,1.26-.69,2.09-1.11,0-.06,1.27-.44,1.26-.5l1.12-.41"/><path class="cls-8" d="M268.12,311.77c1.16,.66,2.18,1.53,3,2.58,1.1,.66,1.23,1.2,3.83,.88-.5,.06,2.37,.19,2.8,.31,.96,.24,1.83,.75,2.52,1.46,1.07,.88,2.31,1.52,3.65,1.87,.83,.31,1,.47,2.58,1.12,.71,.26,1.34,.71,1.81,1.3,.83,1.34-.13,2.21-1.61,3.56-2.45,2.22-4.58,2.48-6.69,5.66-1.77,2.65-3.68,5.81-5.06,6.7-1.16,.74-2.25,1.59-3.25,2.53-.84,.72-1.61,1.51-2.29,2.38-.99,1.55-2.28,2.89-3.8,3.93-1.3,.9-2.86,1.63-4.22,2.51-.96,.64-1.86,1.38-2.68,2.2-1.35,1.28-2.9,3.76-5.18,4.95-4.53,2.35-3.32,1.86-6.48,4.45-1.09,.85-2.32,1.53-3.62,2-1.92,.58-3.69,1.61-5.14,3-1.21,1.11-2.41,2.81-4.86,3.94-3,1.39-3.23,1-7,3.1-1.25,.84-2.45,1.76-3.6,2.73-1.92,1.08-4.01,1.85-6.17,2.28-2.23,.46-4.37,1.26-6.36,2.37-1.78,.95-3.66,1.69-5.61,2.2-.49,.11-.99-.12-1.24-.55-.4-.52-.57-1.17-.48-1.82,0-1.04,.09-2.08,.27-3.11,.07-.46,.38-3.36,.43-3.81,.38-2.83,.36-5.55-1.71-6.13-1.14-.11-2.28,.1-3.3,.63-3.31,1.68-2.56,2.05-4.76,1.93-.62,0-1.24,.1-1.83,.28-1.07,.39-2.54,1.66-3.88,2.31-.93,.46-1.26-.58-1.29-1.38,0-1.25,0-2.47-.17-3.83-.39-3.57-1-3.57-1.58-5.62-.51-1.85-.64-5.24-.73-5.12,0-2.54,.5-5.05,1.48-7.39,.52-1.05,.92-2.15,1.2-3.28,.41-1.4,.38-2.88-.09-4.26,0,0-.44-1.08-.32-1.12-.13-.71-.07-1.45,.15-2.14,.16-.72,.56-1.38,1.12-1.86,.33-.3,.69-.54,1.09-.74,1.24-.48,1.55,.28,3.8-1.48,.88-.59,1.97-.79,3-.54,1.66,.11,1.38,.2,2.41-.09,1.06-.31,2.01-.9,2.77-1.7,.47-.38,.86-.85,1.16-1.38,.29-.75,.48-1.54,.56-2.34,.16-.95,.13-1.93-.08-2.87-.67-1.91-.89-2.29-1.34-3.49-.39-.92-.73-1.87-1-2.83l-.13-1.18c-.18-.9,.32-1.8,1.19-2.11,2.89-.93,5.66-.92,8.71-1.9,2.52-.81,3.55-1.69,6.6-1.49,1.06,.07,1.73,.76,3.38,.73,3.14-.06,5.43-3,8.15-2.53,2.27,.39,1.76-.12,3.91,.61,1.75,.6,3.62,.76,5.45,.45,1.79-.28,4.54-1.93,7.59-.64,1.69,.7,3.57,.81,5.34,.33,2.47-.5,2.68-.94,4.72-.08,1.5,.63,1.09,.52,2.6,1.19,.69,.38,1.43,.65,2.2,.8,.86-.01,1.73-.09,2.58-.24,1.84-.48,2.34-.8,3.83-.72l1.62,.57"/><path d="M206.16,350l.29,4.09,14.61-4.61,1.35-1.89-.35-4.91-2.15,.68-.09-1.24,7.71-7.4,.73,.52c-1.68,1.7-3.04,3.7-4,5.9-1.38,3.27-1.68,7.29-.52,10.06,.56,1.59,1.61,2.95,3,3.9,1.37,.98,2.97,1.6,4.64,1.81,2.99,.39,6.03,.31,9-.26,3.16-.74,6.25-1.77,9.23-3.07,2.52-1.16,4.9-2.62,7.08-4.34,1.38-1.07,2.67-2.25,3.85-3.54,2.76-3.12,5.59-7.41,5.34-11.57l-5.43,1.71c-1.25,6.91-17.47,15-24.39,12.15-5.07-2.45-4-6.39-2.06-8.65l.66,.5-.94,1.46,.37,4.07,13.84-4.37,1.66-2.34-.32-4.44-1.06,.33-5.21-3.89c9.05-5,13.9-2.16,16.92,1.63l3.6-1.14,1.69-2.45-.73-10.7-3.84,1.2-2.19,2.22c-8.44-1.22-14.46,1.12-20.64,5.33l-1.11-.78,5.59-5.52,3.52-1.13,1.61-2.27-.26-3.67-14.11,4.45-1.39,2.08,.18,2.49-12.67,12.13-.43-6.13,2-2.94-.26-3.69-13.88,4.37-1.75,2.86,.21,2.92,2.27-.72,1.12,15.8-.69,.22s-1.7,2.8-1.6,2.81"/><path class="cls-6" d="M207,326.88l12.67-4,.17,2.39-2.16,.7,.74,10.35,16.58-15.81-1.52,.48-.17-2.39,13.06-4.14,.17,2.39-2.9,1-8.46,8.27,12.82,9.73,.42-.12,.2,2.76-13.14,4.14-.2-2.79,1.83-.55-8.81-6.57-9.4,9,.23,3.21,2.07-.65,.19,2.75-12.67,4-.19-2.74,2.16-.68-1.36-19-2.16,.68-.17-2.39v-.02Zm58,8.48c-.31,3-1.45,4.49-2.83,6.79-1.17,1.78-2.58,3.38-4.21,4.76-3.21,2.8-6.95,4.93-11,6.25-4.53,1.71-9.38,2.4-14.2,2-2.76-.22-5.3-1.58-7-3.76-1.68-2.65-1.2-6.18-.8-8,.67-2.9,2.14-5.54,4.25-7.64l4.1,3.11c-1.8,2.36-3,6,.3,8.72,3.94,3.6,12.25,2.34,20.6-3,4.31-2.77,6.1-5.3,7.33-8.16l3.47-1.09v.02Zm-26.45-8.12c5.83-4.21,13.05-6.02,20.18-5.05l2.05-2.16,3-.95,.65,9.56-3.36,1.1c-3.81-4.33-11.74-3.79-18.88,.33l-3.66-2.83h.02Z"/><path class="cls-3" d="M29.43,337.38l9,3.86c.66,.29,1.12,.91,1.19,1.63l.15,15.7c0,.62-.51,.89-1.16,.62l-9-3.87c-.66-.29-1.11-.91-1.18-1.62l-.16-15.7c-.01-.62,.51-.9,1.16-.62Z"/><path class="cls-12" d="M43.56,332.25l9,3.87c.66,.29,1.12,.91,1.19,1.63l.25,26.91c0,.62-.51,.89-1.16,.62l-9-3.87c-.66-.29-1.12-.91-1.19-1.63l-.26-26.91c0-.62,.52-.87,1.17-.62Z"/><path class="cls-23" d="M57.68,327.13l9,3.87c.66,.29,1.11,.91,1.19,1.62l.36,38.13c0,.62-.51,.89-1.16,.62l-9-3.87c-.66-.29-1.12-.91-1.19-1.63l-.36-38.12c-.01-.62,.48-.9,1.16-.62Z"/><path class="cls-17" d="M71.81,322l9,3.87c.66,.29,1.12,.91,1.19,1.63l.47,49.34c0,.62-.52,.89-1.17,.62l-9-3.87c-.65-.28-1.1-.89-1.19-1.59l-.47-49.34c0-.66,.52-.93,1.17-.66Z"/><path class="cls-7" d="M85.93,316.89l9,3.86c.66,.29,1.12,.91,1.19,1.63l.58,60.55c0,.62-.52,.89-1.17,.62l-9-3.87c-.66-.29-1.11-.91-1.19-1.62l-.58-60.55c0-.62,.52-.9,1.17-.62Z"/><path class="cls-5" d="M100.06,311.76l9,3.87c.66,.29,1.11,.91,1.19,1.62l.75,71.75c0,.62-.52,.9-1.17,.62l-9-3.87c-.66-.29-1.11-.91-1.19-1.62l-.68-71.77c-.08-.6,.45-.87,1.1-.6Z"/><path d="M29.62,357.56l80.19,34.32c.66,.29,1.12,.91,1.19,1.63h0c0,.61-.52,.89-1.17,.61l-80.18-34.32c-.66-.29-1.11-.91-1.19-1.62h0c0-.62,.54-.9,1.16-.62Z"/><path d="M23.72,330.56c-.71-.17-1.23-.77-1.31-1.49,.01-1.01,.83-1.83,1.84-1.85,19.32-1.44,61.05-16.32,74-31.25,.71-.77,1.86-.93,2.75-.37,.74,.45,.98,1.41,.53,2.16-.05,.09-.11,.17-.18,.24-13.79,15.88-56.35,31.11-76.86,32.63-.26,.02-.52,0-.77-.07Z"/><path d="M99.69,305.1c-.82-.18-1.38-.95-1.29-1.79l.6-4.71c.08-.38-.17-.75-.54-.83-.09-.02-.18-.02-.27,0l-5.26,.69c-.99,.17-1.94-.48-2.15-1.46-.06-1.01,.69-1.88,1.7-1.95l8.69-1.14c.58-.09,1.17,.08,1.62,.45,.42,.34,.64,.87,.57,1.4l-1.08,7.86c-.23,.99-1.16,1.65-2.17,1.54-.14,0-.28-.02-.42-.06Z"/></g></g></svg>